<mxfile host="app.diagrams.net" modified="2022-06-07T13:31:59.346Z" agent="5.0 (Windows NT 10.0; Win64; x64) AppleWebKit/537.36 (KHTML, like Gecko) Chrome/102.0.0.0 Safari/537.36" etag="q736sDvghKRCKF37DV8s" version="19.0.2" type="github" pages="2">
  <diagram id="DRhgaLMDNraIOgMgWesx" name="Breaker Box">
    <mxGraphModel dx="1422" dy="754" grid="1" gridSize="10" guides="1" tooltips="1" connect="1" arrows="1" fold="1" page="1" pageScale="1" pageWidth="850" pageHeight="1100" math="0" shadow="0">
      <root>
        <mxCell id="0" />
        <mxCell id="1" parent="0" />
        <mxCell id="ZPgQHkscu5WNzXI9OrXt-1" value="Well" style="verticalLabelPosition=middle;verticalAlign=middle;html=1;shape=mxgraph.basic.rect;fillColor2=none;strokeWidth=1;size=20;indent=5;labelPosition=center;align=center;fontSize=20;fontStyle=1" vertex="1" parent="1">
          <mxGeometry x="160" y="120" width="200" height="160" as="geometry" />
        </mxCell>
        <mxCell id="ZPgQHkscu5WNzXI9OrXt-2" value="&lt;b&gt;Kitchen 1&lt;/b&gt;" style="verticalLabelPosition=middle;verticalAlign=middle;html=1;shape=mxgraph.basic.rect;fillColor2=none;strokeWidth=1;size=20;indent=5;fontSize=20;labelPosition=center;align=center;" vertex="1" parent="1">
          <mxGeometry x="160" y="280" width="200" height="80" as="geometry" />
        </mxCell>
        <mxCell id="ZPgQHkscu5WNzXI9OrXt-3" value="&lt;b&gt;Kitchen 2&lt;/b&gt;" style="verticalLabelPosition=middle;verticalAlign=middle;html=1;shape=mxgraph.basic.rect;fillColor2=none;strokeWidth=1;size=20;indent=5;fontSize=20;labelPosition=center;align=center;" vertex="1" parent="1">
          <mxGeometry x="160" y="360" width="200" height="80" as="geometry" />
        </mxCell>
        <mxCell id="ZPgQHkscu5WNzXI9OrXt-4" value="&lt;b&gt;Laundry Plug&lt;/b&gt;" style="verticalLabelPosition=middle;verticalAlign=middle;html=1;shape=mxgraph.basic.rect;fillColor2=none;strokeWidth=1;size=20;indent=5;fontSize=20;labelPosition=center;align=center;" vertex="1" parent="1">
          <mxGeometry x="160" y="440" width="200" height="80" as="geometry" />
        </mxCell>
        <mxCell id="ZPgQHkscu5WNzXI9OrXt-5" value="&lt;b&gt;Microwave &amp;amp; &lt;br&gt;Stove Plug&lt;/b&gt;" style="verticalLabelPosition=middle;verticalAlign=middle;html=1;shape=mxgraph.basic.rect;fillColor2=none;strokeWidth=1;size=20;indent=5;fontSize=20;labelPosition=center;align=center;" vertex="1" parent="1">
          <mxGeometry x="160" y="520" width="200" height="80" as="geometry" />
        </mxCell>
        <mxCell id="ZPgQHkscu5WNzXI9OrXt-6" value="&lt;b&gt;Bathroom Plug&lt;/b&gt;" style="verticalLabelPosition=middle;verticalAlign=middle;html=1;shape=mxgraph.basic.rect;fillColor2=none;strokeWidth=1;size=20;indent=5;fontSize=20;labelPosition=center;align=center;" vertex="1" parent="1">
          <mxGeometry x="160" y="600" width="200" height="80" as="geometry" />
        </mxCell>
        <mxCell id="ZPgQHkscu5WNzXI9OrXt-7" value="&lt;b&gt;Heat Pump&lt;/b&gt;" style="verticalLabelPosition=middle;verticalAlign=middle;html=1;shape=mxgraph.basic.rect;fillColor2=none;strokeWidth=1;size=20;indent=5;fontSize=20;labelPosition=center;align=center;" vertex="1" parent="1">
          <mxGeometry x="160" y="680" width="200" height="160" as="geometry" />
        </mxCell>
        <mxCell id="ZPgQHkscu5WNzXI9OrXt-8" value="&lt;b style=&quot;font-size: 14px;&quot;&gt;Basement Bedroom&lt;br style=&quot;font-size: 14px;&quot;&gt;&amp;amp; Furnace Room&lt;br style=&quot;font-size: 14px;&quot;&gt;Lights&lt;br style=&quot;font-size: 14px;&quot;&gt;&lt;/b&gt;" style="verticalLabelPosition=middle;verticalAlign=middle;html=1;shape=mxgraph.basic.rect;fillColor2=none;strokeWidth=1;size=20;indent=5;fontSize=14;labelPosition=center;align=center;" vertex="1" parent="1">
          <mxGeometry x="160" y="840" width="200" height="80" as="geometry" />
        </mxCell>
        <mxCell id="ZPgQHkscu5WNzXI9OrXt-9" value="&lt;b style=&quot;font-size: 14px;&quot;&gt;Basement Plugs&lt;/b&gt;" style="verticalLabelPosition=middle;verticalAlign=middle;html=1;shape=mxgraph.basic.rect;fillColor2=none;strokeWidth=1;size=20;indent=5;fontSize=14;labelPosition=center;align=center;" vertex="1" parent="1">
          <mxGeometry x="160" y="920" width="200" height="40" as="geometry" />
        </mxCell>
        <mxCell id="ZPgQHkscu5WNzXI9OrXt-10" value="&lt;b style=&quot;font-size: 14px;&quot;&gt;Utility Room Lights &amp;amp; Plugs&lt;/b&gt;" style="verticalLabelPosition=middle;verticalAlign=middle;html=1;shape=mxgraph.basic.rect;fillColor2=none;strokeWidth=1;size=20;indent=5;fontSize=14;labelPosition=center;align=center;" vertex="1" parent="1">
          <mxGeometry x="160" y="960" width="200" height="40" as="geometry" />
        </mxCell>
        <mxCell id="ZPgQHkscu5WNzXI9OrXt-11" value="&lt;b&gt;Sump Pump Plug&lt;/b&gt;" style="verticalLabelPosition=middle;verticalAlign=middle;html=1;shape=mxgraph.basic.rect;fillColor2=none;strokeWidth=1;size=20;indent=5;fontSize=20;labelPosition=center;align=center;" vertex="1" parent="1">
          <mxGeometry x="160" y="1000" width="200" height="80" as="geometry" />
        </mxCell>
        <mxCell id="ZPgQHkscu5WNzXI9OrXt-12" value="&lt;b style=&quot;font-size: 14px;&quot;&gt;Nursery, Kitchen &amp;amp;&lt;br style=&quot;font-size: 14px;&quot;&gt;Dining Room Lights&lt;br style=&quot;font-size: 14px;&quot;&gt;&lt;/b&gt;" style="verticalLabelPosition=middle;verticalAlign=middle;html=1;shape=mxgraph.basic.rect;fillColor2=none;strokeWidth=1;size=20;indent=5;fontSize=14;labelPosition=center;align=center;" vertex="1" parent="1">
          <mxGeometry x="480" y="120" width="200" height="80" as="geometry" />
        </mxCell>
        <mxCell id="ZPgQHkscu5WNzXI9OrXt-13" value="&lt;b&gt;Master Suite&lt;/b&gt;" style="verticalLabelPosition=middle;verticalAlign=middle;html=1;shape=mxgraph.basic.rect;fillColor2=none;strokeWidth=1;size=20;indent=5;fontSize=20;labelPosition=center;align=center;" vertex="1" parent="1">
          <mxGeometry x="480" y="200" width="200" height="80" as="geometry" />
        </mxCell>
        <mxCell id="ZPgQHkscu5WNzXI9OrXt-14" value="&lt;b&gt;Furnace&lt;/b&gt;" style="verticalLabelPosition=middle;verticalAlign=middle;html=1;shape=mxgraph.basic.rect;fillColor2=none;strokeWidth=1;size=20;indent=5;fontSize=20;labelPosition=center;align=center;" vertex="1" parent="1">
          <mxGeometry x="480" y="280" width="200" height="80" as="geometry" />
        </mxCell>
        <mxCell id="ZPgQHkscu5WNzXI9OrXt-15" value="&lt;b&gt;Basement &amp;amp;&lt;br&gt;Stair Lights&lt;br&gt;&lt;/b&gt;" style="verticalLabelPosition=middle;verticalAlign=middle;html=1;shape=mxgraph.basic.rect;fillColor2=none;strokeWidth=1;size=20;indent=5;fontSize=20;labelPosition=center;align=center;" vertex="1" parent="1">
          <mxGeometry x="480" y="360" width="200" height="80" as="geometry" />
        </mxCell>
        <mxCell id="ZPgQHkscu5WNzXI9OrXt-16" value="&lt;b&gt;Dishwasher&lt;/b&gt;" style="verticalLabelPosition=middle;verticalAlign=middle;html=1;shape=mxgraph.basic.rect;fillColor2=none;strokeWidth=1;size=20;indent=5;fontSize=20;labelPosition=center;align=center;" vertex="1" parent="1">
          <mxGeometry x="480" y="440" width="200" height="80" as="geometry" />
        </mxCell>
        <mxCell id="ZPgQHkscu5WNzXI9OrXt-17" value="&lt;b style=&quot;font-size: 14px;&quot;&gt;Garage, Outside &amp;amp;&lt;br style=&quot;font-size: 14px;&quot;&gt;Front Garage Lights&lt;br style=&quot;font-size: 14px;&quot;&gt;&lt;/b&gt;" style="verticalLabelPosition=middle;verticalAlign=middle;html=1;shape=mxgraph.basic.rect;fillColor2=none;strokeWidth=1;size=20;indent=5;fontSize=14;labelPosition=center;align=center;" vertex="1" parent="1">
          <mxGeometry x="480" y="520" width="200" height="80" as="geometry" />
        </mxCell>
        <mxCell id="ZPgQHkscu5WNzXI9OrXt-18" value="&lt;b&gt;Living Room Plugs&lt;/b&gt;" style="verticalLabelPosition=middle;verticalAlign=middle;html=1;shape=mxgraph.basic.rect;fillColor2=none;strokeWidth=1;size=20;indent=5;fontSize=20;labelPosition=center;align=center;" vertex="1" parent="1">
          <mxGeometry x="480" y="600" width="200" height="80" as="geometry" />
        </mxCell>
        <mxCell id="ZPgQHkscu5WNzXI9OrXt-19" value="&lt;b&gt;Dryer&lt;/b&gt;" style="verticalLabelPosition=middle;verticalAlign=middle;html=1;shape=mxgraph.basic.rect;fillColor2=none;strokeWidth=1;size=20;indent=5;fontSize=20;labelPosition=center;align=center;" vertex="1" parent="1">
          <mxGeometry x="480" y="920" width="200" height="160" as="geometry" />
        </mxCell>
        <mxCell id="ZPgQHkscu5WNzXI9OrXt-20" value="&lt;b&gt;Oven&lt;/b&gt;" style="verticalLabelPosition=middle;verticalAlign=middle;html=1;shape=mxgraph.basic.rect;fillColor2=none;strokeWidth=1;size=20;indent=5;fontSize=20;labelPosition=center;align=center;" vertex="1" parent="1">
          <mxGeometry x="480" y="760" width="200" height="160" as="geometry" />
        </mxCell>
        <mxCell id="ZPgQHkscu5WNzXI9OrXt-21" value="&lt;b&gt;Garage &amp;amp;&lt;br&gt;Outside Plugs&lt;br&gt;&lt;/b&gt;" style="verticalLabelPosition=middle;verticalAlign=middle;html=1;shape=mxgraph.basic.rect;fillColor2=none;strokeWidth=1;size=20;indent=5;fontSize=20;labelPosition=center;align=center;" vertex="1" parent="1">
          <mxGeometry x="480" y="680" width="200" height="80" as="geometry" />
        </mxCell>
        <mxCell id="ZPgQHkscu5WNzXI9OrXt-22" value="&lt;b&gt;Grid Phase A&lt;/b&gt;" style="verticalLabelPosition=middle;verticalAlign=middle;html=1;shape=mxgraph.basic.rect;fillColor2=none;strokeWidth=1;size=20;indent=5;fontSize=20;labelPosition=center;align=center;" vertex="1" parent="1">
          <mxGeometry x="200" y="20" width="200" height="80" as="geometry" />
        </mxCell>
        <mxCell id="ZPgQHkscu5WNzXI9OrXt-23" value="&lt;b&gt;Grid Phase B&lt;/b&gt;" style="verticalLabelPosition=middle;verticalAlign=middle;html=1;shape=mxgraph.basic.rect;fillColor2=none;strokeWidth=1;size=20;indent=5;fontSize=20;labelPosition=center;align=center;" vertex="1" parent="1">
          <mxGeometry x="440" y="20" width="200" height="80" as="geometry" />
        </mxCell>
      </root>
    </mxGraphModel>
  </diagram>
  <diagram id="R-VACFkbryrsxzP0tuec" name="Power Monitor">
    <mxGraphModel dx="1422" dy="754" grid="1" gridSize="10" guides="1" tooltips="1" connect="1" arrows="1" fold="1" page="1" pageScale="1" pageWidth="850" pageHeight="1100" math="0" shadow="0">
      <root>
        <mxCell id="0" />
        <mxCell id="1" parent="0" />
        <mxCell id="h0fynSkXnY6JJ_1KDg6M-1" value="CT3" style="rounded=0;whiteSpace=wrap;html=1;fontSize=14;" vertex="1" parent="1">
          <mxGeometry x="240" y="1000" width="80" height="40" as="geometry" />
        </mxCell>
        <mxCell id="h0fynSkXnY6JJ_1KDg6M-2" value="CT2" style="rounded=0;whiteSpace=wrap;html=1;fontSize=14;" vertex="1" parent="1">
          <mxGeometry x="240" y="960" width="80" height="40" as="geometry" />
        </mxCell>
        <mxCell id="h0fynSkXnY6JJ_1KDg6M-3" value="CT1" style="rounded=0;whiteSpace=wrap;html=1;fontSize=14;" vertex="1" parent="1">
          <mxGeometry x="240" y="920" width="80" height="40" as="geometry" />
        </mxCell>
        <mxCell id="h0fynSkXnY6JJ_1KDg6M-4" value="CT4" style="rounded=0;whiteSpace=wrap;html=1;fontSize=14;" vertex="1" parent="1">
          <mxGeometry x="360" y="1000" width="80" height="40" as="geometry" />
        </mxCell>
        <mxCell id="h0fynSkXnY6JJ_1KDg6M-5" value="CT5" style="rounded=0;whiteSpace=wrap;html=1;fontSize=14;" vertex="1" parent="1">
          <mxGeometry x="360" y="960" width="80" height="40" as="geometry" />
        </mxCell>
        <mxCell id="h0fynSkXnY6JJ_1KDg6M-6" value="CT6" style="rounded=0;whiteSpace=wrap;html=1;fontSize=14;" vertex="1" parent="1">
          <mxGeometry x="360" y="920" width="80" height="40" as="geometry" />
        </mxCell>
        <mxCell id="h0fynSkXnY6JJ_1KDg6M-7" value="CT9" style="rounded=0;whiteSpace=wrap;html=1;fontSize=14;" vertex="1" parent="1">
          <mxGeometry x="240" y="840" width="80" height="40" as="geometry" />
        </mxCell>
        <mxCell id="h0fynSkXnY6JJ_1KDg6M-8" value="CT8" style="rounded=0;whiteSpace=wrap;html=1;fontSize=14;" vertex="1" parent="1">
          <mxGeometry x="240" y="800" width="80" height="40" as="geometry" />
        </mxCell>
        <mxCell id="h0fynSkXnY6JJ_1KDg6M-9" value="CT7" style="rounded=0;whiteSpace=wrap;html=1;fontSize=14;" vertex="1" parent="1">
          <mxGeometry x="240" y="760" width="80" height="40" as="geometry" />
        </mxCell>
        <mxCell id="h0fynSkXnY6JJ_1KDg6M-10" value="CT10" style="rounded=0;whiteSpace=wrap;html=1;fontSize=14;" vertex="1" parent="1">
          <mxGeometry x="360" y="840" width="80" height="40" as="geometry" />
        </mxCell>
        <mxCell id="h0fynSkXnY6JJ_1KDg6M-11" value="CT11" style="rounded=0;whiteSpace=wrap;html=1;fontSize=14;" vertex="1" parent="1">
          <mxGeometry x="360" y="800" width="80" height="40" as="geometry" />
        </mxCell>
        <mxCell id="h0fynSkXnY6JJ_1KDg6M-12" value="CT12" style="rounded=0;whiteSpace=wrap;html=1;fontSize=14;" vertex="1" parent="1">
          <mxGeometry x="360" y="760" width="80" height="40" as="geometry" />
        </mxCell>
        <mxCell id="h0fynSkXnY6JJ_1KDg6M-13" value="CT15" style="rounded=0;whiteSpace=wrap;html=1;fontSize=14;" vertex="1" parent="1">
          <mxGeometry x="240" y="680" width="80" height="40" as="geometry" />
        </mxCell>
        <mxCell id="h0fynSkXnY6JJ_1KDg6M-14" value="CT14" style="rounded=0;whiteSpace=wrap;html=1;fontSize=14;" vertex="1" parent="1">
          <mxGeometry x="240" y="640" width="80" height="40" as="geometry" />
        </mxCell>
        <mxCell id="h0fynSkXnY6JJ_1KDg6M-15" value="CT13" style="rounded=0;whiteSpace=wrap;html=1;fontSize=14;" vertex="1" parent="1">
          <mxGeometry x="240" y="600" width="80" height="40" as="geometry" />
        </mxCell>
        <mxCell id="h0fynSkXnY6JJ_1KDg6M-16" value="CT16" style="rounded=0;whiteSpace=wrap;html=1;fontSize=14;" vertex="1" parent="1">
          <mxGeometry x="360" y="680" width="80" height="40" as="geometry" />
        </mxCell>
        <mxCell id="h0fynSkXnY6JJ_1KDg6M-17" value="CT17" style="rounded=0;whiteSpace=wrap;html=1;fontSize=14;" vertex="1" parent="1">
          <mxGeometry x="360" y="640" width="80" height="40" as="geometry" />
        </mxCell>
        <mxCell id="h0fynSkXnY6JJ_1KDg6M-18" value="CT18" style="rounded=0;whiteSpace=wrap;html=1;fontSize=14;" vertex="1" parent="1">
          <mxGeometry x="360" y="600" width="80" height="40" as="geometry" />
        </mxCell>
        <mxCell id="h0fynSkXnY6JJ_1KDg6M-19" value="CT21" style="rounded=0;whiteSpace=wrap;html=1;fontSize=14;" vertex="1" parent="1">
          <mxGeometry x="240" y="520" width="80" height="40" as="geometry" />
        </mxCell>
        <mxCell id="h0fynSkXnY6JJ_1KDg6M-20" value="CT20" style="rounded=0;whiteSpace=wrap;html=1;fontSize=14;" vertex="1" parent="1">
          <mxGeometry x="240" y="480" width="80" height="40" as="geometry" />
        </mxCell>
        <mxCell id="h0fynSkXnY6JJ_1KDg6M-21" value="CT19" style="rounded=0;whiteSpace=wrap;html=1;fontSize=14;" vertex="1" parent="1">
          <mxGeometry x="240" y="440" width="80" height="40" as="geometry" />
        </mxCell>
        <mxCell id="h0fynSkXnY6JJ_1KDg6M-22" value="CT22" style="rounded=0;whiteSpace=wrap;html=1;fontSize=14;" vertex="1" parent="1">
          <mxGeometry x="360" y="520" width="80" height="40" as="geometry" />
        </mxCell>
        <mxCell id="h0fynSkXnY6JJ_1KDg6M-23" value="CT23" style="rounded=0;whiteSpace=wrap;html=1;fontSize=14;" vertex="1" parent="1">
          <mxGeometry x="360" y="480" width="80" height="40" as="geometry" />
        </mxCell>
        <mxCell id="h0fynSkXnY6JJ_1KDg6M-24" value="CT24" style="rounded=0;whiteSpace=wrap;html=1;fontSize=14;" vertex="1" parent="1">
          <mxGeometry x="360" y="440" width="80" height="40" as="geometry" />
        </mxCell>
      </root>
    </mxGraphModel>
  </diagram>
</mxfile>
